<svg width="1363" height="167" viewBox="0 0 1363 167" fill="none" xmlns="http://www.w3.org/2000/svg">
<rect width="1363" height="167" rx="15" fill="#F0F0F0"/>
<path d="M0 15C0 6.71573 6.71573 0 15 0H37V167H15C6.71573 167 0 160.284 0 152V15Z" fill="#424241"/>
<path d="M100.906 54.9219L93.3945 52.2383V49.0859L103.602 53.375V55.6367L100.906 54.9219ZM93.3945 57.1719L100.918 54.4297L103.602 53.7852V56.0352L93.3945 60.3242V57.1719ZM115.414 44.9375V62H111.898V44.9375H115.414ZM122.211 52.2266V54.9688H114.453V52.2266H122.211ZM123.031 44.9375V47.6914H114.453V44.9375H123.031ZM131.305 59.1406V53.4922C131.305 53.0859 131.238 52.7383 131.105 52.4492C130.973 52.1523 130.766 51.9219 130.484 51.7578C130.211 51.5938 129.855 51.5117 129.418 51.5117C129.043 51.5117 128.719 51.5781 128.445 51.7109C128.172 51.8359 127.961 52.0195 127.812 52.2617C127.664 52.4961 127.59 52.7734 127.59 53.0938H124.215C124.215 52.5547 124.34 52.043 124.59 51.5586C124.84 51.0742 125.203 50.6484 125.68 50.2812C126.156 49.9062 126.723 49.6133 127.379 49.4023C128.043 49.1914 128.785 49.0859 129.605 49.0859C130.59 49.0859 131.465 49.25 132.23 49.5781C132.996 49.9062 133.598 50.3984 134.035 51.0547C134.48 51.7109 134.703 52.5312 134.703 53.5156V58.9414C134.703 59.6367 134.746 60.207 134.832 60.6523C134.918 61.0898 135.043 61.4727 135.207 61.8008V62H131.797C131.633 61.6562 131.508 61.2266 131.422 60.7109C131.344 60.1875 131.305 59.6641 131.305 59.1406ZM131.75 54.2773L131.773 56.1875H129.887C129.441 56.1875 129.055 56.2383 128.727 56.3398C128.398 56.4414 128.129 56.5859 127.918 56.7734C127.707 56.9531 127.551 57.1641 127.449 57.4062C127.355 57.6484 127.309 57.9141 127.309 58.2031C127.309 58.4922 127.375 58.7539 127.508 58.9883C127.641 59.2148 127.832 59.3945 128.082 59.5273C128.332 59.6523 128.625 59.7148 128.961 59.7148C129.469 59.7148 129.91 59.6133 130.285 59.4102C130.66 59.207 130.949 58.957 131.152 58.6602C131.363 58.3633 131.473 58.082 131.48 57.8164L132.371 59.2461C132.246 59.5664 132.074 59.8984 131.855 60.2422C131.645 60.5859 131.375 60.9102 131.047 61.2148C130.719 61.5117 130.324 61.7578 129.863 61.9531C129.402 62.1406 128.855 62.2344 128.223 62.2344C127.418 62.2344 126.688 62.0742 126.031 61.7539C125.383 61.4258 124.867 60.9766 124.484 60.4062C124.109 59.8281 123.922 59.1719 123.922 58.4375C123.922 57.7734 124.047 57.1836 124.297 56.668C124.547 56.1523 124.914 55.7188 125.398 55.3672C125.891 55.0078 126.504 54.7383 127.238 54.5586C127.973 54.3711 128.824 54.2773 129.793 54.2773H131.75ZM140.867 44V62H137.48V44H140.867ZM147.219 44V62H143.832V44H147.219ZM156.852 59.1406V53.4922C156.852 53.0859 156.785 52.7383 156.652 52.4492C156.52 52.1523 156.312 51.9219 156.031 51.7578C155.758 51.5938 155.402 51.5117 154.965 51.5117C154.59 51.5117 154.266 51.5781 153.992 51.7109C153.719 51.8359 153.508 52.0195 153.359 52.2617C153.211 52.4961 153.137 52.7734 153.137 53.0938H149.762C149.762 52.5547 149.887 52.043 150.137 51.5586C150.387 51.0742 150.75 50.6484 151.227 50.2812C151.703 49.9062 152.27 49.6133 152.926 49.4023C153.59 49.1914 154.332 49.0859 155.152 49.0859C156.137 49.0859 157.012 49.25 157.777 49.5781C158.543 49.9062 159.145 50.3984 159.582 51.0547C160.027 51.7109 160.25 52.5312 160.25 53.5156V58.9414C160.25 59.6367 160.293 60.207 160.379 60.6523C160.465 61.0898 160.59 61.4727 160.754 61.8008V62H157.344C157.18 61.6562 157.055 61.2266 156.969 60.7109C156.891 60.1875 156.852 59.6641 156.852 59.1406ZM157.297 54.2773L157.32 56.1875H155.434C154.988 56.1875 154.602 56.2383 154.273 56.3398C153.945 56.4414 153.676 56.5859 153.465 56.7734C153.254 56.9531 153.098 57.1641 152.996 57.4062C152.902 57.6484 152.855 57.9141 152.855 58.2031C152.855 58.4922 152.922 58.7539 153.055 58.9883C153.188 59.2148 153.379 59.3945 153.629 59.5273C153.879 59.6523 154.172 59.7148 154.508 59.7148C155.016 59.7148 155.457 59.6133 155.832 59.4102C156.207 59.207 156.496 58.957 156.699 58.6602C156.91 58.3633 157.02 58.082 157.027 57.8164L157.918 59.2461C157.793 59.5664 157.621 59.8984 157.402 60.2422C157.191 60.5859 156.922 60.9102 156.594 61.2148C156.266 61.5117 155.871 61.7578 155.41 61.9531C154.949 62.1406 154.402 62.2344 153.77 62.2344C152.965 62.2344 152.234 62.0742 151.578 61.7539C150.93 61.4258 150.414 60.9766 150.031 60.4062C149.656 59.8281 149.469 59.1719 149.469 58.4375C149.469 57.7734 149.594 57.1836 149.844 56.668C150.094 56.1523 150.461 55.7188 150.945 55.3672C151.438 55.0078 152.051 54.7383 152.785 54.5586C153.52 54.3711 154.371 54.2773 155.34 54.2773H157.297ZM166.145 44V62H162.77V44H166.145ZM165.664 55.2148H164.738C164.746 54.332 164.863 53.5195 165.09 52.7773C165.316 52.0273 165.641 51.3789 166.062 50.832C166.484 50.2773 166.988 49.8477 167.574 49.543C168.168 49.2383 168.824 49.0859 169.543 49.0859C170.168 49.0859 170.734 49.1758 171.242 49.3555C171.758 49.5273 172.199 49.8086 172.566 50.1992C172.941 50.582 173.23 51.0859 173.434 51.7109C173.637 52.3359 173.738 53.0938 173.738 53.9844V62H170.34V53.9609C170.34 53.3984 170.258 52.957 170.094 52.6367C169.938 52.3086 169.707 52.0781 169.402 51.9453C169.105 51.8047 168.738 51.7344 168.301 51.7344C167.816 51.7344 167.402 51.8242 167.059 52.0039C166.723 52.1836 166.453 52.4336 166.25 52.7539C166.047 53.0664 165.898 53.4336 165.805 53.8555C165.711 54.2773 165.664 54.7305 165.664 55.2148Z" fill="#888888"/>
<path d="M115.994 98.708V104.641H99.5806V98.708H115.994ZM102.151 86.0078V118H94.439V86.0078H102.151ZM121.18 86.0078V118H113.489V86.0078H121.18ZM124.805 106.354V105.893C124.805 104.15 125.054 102.546 125.552 101.081C126.05 99.6016 126.783 98.3198 127.75 97.2358C128.716 96.1519 129.91 95.3096 131.331 94.709C132.752 94.0938 134.393 93.7861 136.253 93.7861C138.128 93.7861 139.776 94.0938 141.197 94.709C142.632 95.3096 143.833 96.1519 144.8 97.2358C145.767 98.3198 146.5 99.6016 146.998 101.081C147.496 102.546 147.745 104.15 147.745 105.893V106.354C147.745 108.083 147.496 109.687 146.998 111.167C146.5 112.631 145.767 113.913 144.8 115.012C143.833 116.096 142.64 116.938 141.219 117.539C139.798 118.139 138.157 118.439 136.297 118.439C134.437 118.439 132.789 118.139 131.353 117.539C129.917 116.938 128.716 116.096 127.75 115.012C126.783 113.913 126.05 112.631 125.552 111.167C125.054 109.687 124.805 108.083 124.805 106.354ZM132.21 105.893V106.354C132.21 107.248 132.276 108.083 132.408 108.859C132.54 109.636 132.759 110.317 133.067 110.903C133.375 111.474 133.792 111.921 134.319 112.243C134.847 112.565 135.506 112.727 136.297 112.727C137.073 112.727 137.718 112.565 138.23 112.243C138.758 111.921 139.175 111.474 139.483 110.903C139.791 110.317 140.01 109.636 140.142 108.859C140.274 108.083 140.34 107.248 140.34 106.354V105.893C140.34 105.029 140.274 104.216 140.142 103.454C140.01 102.678 139.791 101.997 139.483 101.411C139.175 100.81 138.758 100.341 138.23 100.004C137.703 99.6675 137.044 99.499 136.253 99.499C135.477 99.499 134.825 99.6675 134.297 100.004C133.785 100.341 133.375 100.81 133.067 101.411C132.759 101.997 132.54 102.678 132.408 103.454C132.276 104.216 132.21 105.029 132.21 105.893ZM158.27 110.925L162.664 94.2256H167.3L165.652 102.597L161.302 118H157.588L158.27 110.925ZM156.534 94.2256L159.258 110.793L159.566 118H155.062L149.437 94.2256H156.534ZM171.211 110.441L173.958 94.2256H181.055L175.474 118H170.97L171.211 110.441ZM167.828 94.2256L172.266 110.881L172.947 118H169.19L164.927 102.641L163.345 94.2256H167.828ZM209.466 86.0078V118H201.753V86.0078H209.466ZM219.09 86.0078V91.9624H192.349V86.0078H219.09ZM216.475 106.354V105.893C216.475 104.15 216.724 102.546 217.222 101.081C217.72 99.6016 218.453 98.3198 219.419 97.2358C220.386 96.1519 221.58 95.3096 223.001 94.709C224.422 94.0938 226.062 93.7861 227.923 93.7861C229.798 93.7861 231.446 94.0938 232.867 94.709C234.302 95.3096 235.503 96.1519 236.47 97.2358C237.437 98.3198 238.169 99.6016 238.667 101.081C239.166 102.546 239.415 104.15 239.415 105.893V106.354C239.415 108.083 239.166 109.687 238.667 111.167C238.169 112.631 237.437 113.913 236.47 115.012C235.503 116.096 234.31 116.938 232.889 117.539C231.468 118.139 229.827 118.439 227.967 118.439C226.106 118.439 224.458 118.139 223.023 117.539C221.587 116.938 220.386 116.096 219.419 115.012C218.453 113.913 217.72 112.631 217.222 111.167C216.724 109.687 216.475 108.083 216.475 106.354ZM223.88 105.893V106.354C223.88 107.248 223.946 108.083 224.078 108.859C224.209 109.636 224.429 110.317 224.737 110.903C225.044 111.474 225.462 111.921 225.989 112.243C226.517 112.565 227.176 112.727 227.967 112.727C228.743 112.727 229.388 112.565 229.9 112.243C230.428 111.921 230.845 111.474 231.153 110.903C231.46 110.317 231.68 109.636 231.812 108.859C231.944 108.083 232.01 107.248 232.01 106.354V105.893C232.01 105.029 231.944 104.216 231.812 103.454C231.68 102.678 231.46 101.997 231.153 101.411C230.845 100.81 230.428 100.341 229.9 100.004C229.373 99.6675 228.714 99.499 227.923 99.499C227.146 99.499 226.495 99.6675 225.967 100.004C225.455 100.341 225.044 100.81 224.737 101.411C224.429 101.997 224.209 102.678 224.078 103.454C223.946 104.216 223.88 105.029 223.88 105.893ZM254.268 86.0078H266.858C269.319 86.0078 271.458 86.374 273.274 87.1064C275.091 87.8389 276.49 88.9229 277.471 90.3584C278.467 91.7939 278.965 93.5664 278.965 95.6758C278.965 97.5068 278.68 99.0376 278.108 100.268C277.537 101.499 276.739 102.517 275.713 103.322C274.703 104.113 273.523 104.765 272.176 105.278L269.649 106.706H259.08L259.036 100.751H266.858C267.84 100.751 268.653 100.576 269.297 100.224C269.942 99.8726 270.425 99.3745 270.748 98.73C271.084 98.0708 271.253 97.2871 271.253 96.3789C271.253 95.4561 271.084 94.665 270.748 94.0059C270.411 93.3467 269.913 92.8413 269.253 92.4897C268.609 92.1382 267.811 91.9624 266.858 91.9624H261.98V118H254.268V86.0078ZM271.78 118L264.705 103.85L272.879 103.806L280.042 117.67V118H271.78ZM297.159 112.221V94.2256H304.585V118H297.642L297.159 112.221ZM297.862 107.387L299.795 107.343C299.795 108.94 299.605 110.419 299.224 111.782C298.843 113.129 298.279 114.301 297.532 115.297C296.8 116.293 295.892 117.07 294.808 117.626C293.738 118.168 292.5 118.439 291.094 118.439C289.922 118.439 288.846 118.278 287.864 117.956C286.897 117.619 286.062 117.099 285.359 116.396C284.656 115.678 284.107 114.763 283.711 113.649C283.331 112.521 283.14 111.174 283.14 109.606V94.2256H290.545V109.65C290.545 110.178 290.611 110.632 290.743 111.013C290.875 111.394 291.065 111.716 291.314 111.979C291.563 112.229 291.871 112.419 292.237 112.551C292.618 112.668 293.05 112.727 293.533 112.727C294.646 112.727 295.518 112.492 296.148 112.023C296.778 111.555 297.217 110.917 297.466 110.112C297.73 109.306 297.862 108.398 297.862 107.387ZM315.945 99.3013V118H308.541V94.2256H315.484L315.945 99.3013ZM315.066 105.3L313.331 105.344C313.331 103.527 313.55 101.909 313.99 100.488C314.429 99.0522 315.052 97.8364 315.857 96.8403C316.663 95.8442 317.623 95.0898 318.736 94.5771C319.864 94.0498 321.116 93.7861 322.493 93.7861C323.592 93.7861 324.595 93.9473 325.503 94.2695C326.426 94.5918 327.217 95.1118 327.876 95.8296C328.55 96.5474 329.063 97.4995 329.415 98.686C329.781 99.8579 329.964 101.308 329.964 103.037V118H322.515V103.015C322.515 102.062 322.383 101.337 322.12 100.839C321.856 100.327 321.475 99.9751 320.977 99.7847C320.479 99.5942 319.871 99.499 319.153 99.499C318.392 99.499 317.747 99.6455 317.22 99.9385C316.692 100.231 316.268 100.642 315.945 101.169C315.638 101.682 315.411 102.29 315.264 102.993C315.132 103.696 315.066 104.465 315.066 105.3ZM345.85 107.871H339.544C339.544 106.582 339.632 105.446 339.808 104.465C339.998 103.469 340.32 102.575 340.774 101.784C341.229 100.993 341.844 100.261 342.62 99.5869C343.309 99.0156 343.902 98.4663 344.4 97.939C344.898 97.4116 345.279 96.877 345.542 96.335C345.806 95.793 345.938 95.2144 345.938 94.5991C345.938 93.8374 345.828 93.2148 345.608 92.7314C345.403 92.248 345.088 91.8892 344.664 91.6548C344.253 91.4058 343.733 91.2812 343.104 91.2812C342.591 91.2812 342.107 91.4058 341.653 91.6548C341.214 91.9038 340.855 92.292 340.577 92.8193C340.298 93.332 340.145 94.0132 340.115 94.8628H332.667C332.71 92.6802 333.194 90.9077 334.117 89.5454C335.054 88.1685 336.299 87.165 337.852 86.5352C339.419 85.8906 341.17 85.5684 343.104 85.5684C345.242 85.5684 347.081 85.8979 348.619 86.5571C350.157 87.2163 351.336 88.1978 352.156 89.5015C352.977 90.7905 353.387 92.3799 353.387 94.2695C353.387 95.5293 353.145 96.6279 352.662 97.5654C352.193 98.4883 351.556 99.3525 350.75 100.158C349.959 100.949 349.073 101.799 348.091 102.707C347.242 103.454 346.663 104.216 346.355 104.992C346.048 105.754 345.879 106.713 345.85 107.871ZM338.643 114.55C338.643 113.496 339.024 112.617 339.786 111.914C340.547 111.196 341.536 110.837 342.752 110.837C343.968 110.837 344.957 111.196 345.718 111.914C346.48 112.617 346.861 113.496 346.861 114.55C346.861 115.605 346.48 116.491 345.718 117.209C344.957 117.912 343.968 118.264 342.752 118.264C341.536 118.264 340.547 117.912 339.786 117.209C339.024 116.491 338.643 115.605 338.643 114.55Z" fill="#424241"/>
<path d="M1363 15C1363 6.71573 1356.28 0 1348 0H1134V167H1348C1356.28 167 1363 160.284 1363 152V15Z" fill="#23CE6B"/>
<path d="M1260.77 81.3079C1263.96 81.3079 1267.09 82.2553 1269.74 84.0303C1272.4 85.8053 1274.47 88.3282 1275.69 91.2799C1276.92 94.2316 1277.24 97.4796 1276.61 100.613C1275.99 103.747 1274.45 106.625 1272.19 108.884C1269.93 111.143 1267.05 112.682 1263.92 113.305C1260.79 113.928 1257.54 113.608 1254.59 112.386C1251.64 111.163 1249.11 109.093 1247.34 106.436C1245.56 103.78 1244.62 100.657 1244.62 97.4617C1244.62 93.1774 1246.32 89.0686 1249.35 86.0392C1252.38 83.0098 1256.48 81.3079 1260.77 81.3079ZM1260.77 75.9233C1256.51 75.9233 1252.35 77.1865 1248.8 79.5532C1245.26 81.9198 1242.5 85.2837 1240.87 89.2193C1239.24 93.1549 1238.81 97.4856 1239.64 101.664C1240.48 105.842 1242.53 109.679 1245.54 112.692C1248.55 115.704 1252.39 117.755 1256.57 118.586C1260.75 119.417 1265.08 118.991 1269.01 117.361C1272.95 115.73 1276.31 112.97 1278.68 109.428C1281.04 105.886 1282.31 101.722 1282.31 97.4617C1282.31 91.7493 1280.04 86.271 1276 82.2317C1271.96 78.1925 1266.48 75.9233 1260.77 75.9233Z" fill="white"/>
<path d="M1274.23 49H1220.38C1218.96 49 1217.59 49.5673 1216.58 50.5771C1215.57 51.5869 1215 52.9565 1215 54.3846V108.231C1215 109.659 1215.57 111.028 1216.58 112.038C1217.59 113.048 1218.96 113.615 1220.38 113.615H1231.15V108.231H1220.38V70.5384H1279.62V54.3846C1279.62 52.9565 1279.05 51.5869 1278.04 50.5771C1277.03 49.5673 1275.66 49 1274.23 49ZM1220.38 65.1538V54.3846H1274.23V65.1538H1220.38Z" fill="white"/>
<path d="M1255.38 89.3849V105.539L1268.85 97.4618L1255.38 89.3849Z" fill="white"/>
</svg>
